<?xml version="1.0" encoding="UTF-8"?>
<svg id="_레이어_1" data-name="레이어 1" xmlns="http://www.w3.org/2000/svg" viewBox="0 0 1000 1000">
  <defs>
    <style>
      .cls-1 {
        fill: #231815;
      }
    </style>
  </defs>
  <circle class="cls-1" cx="500" cy="132.32" r="50"/>
  <circle class="cls-1" cx="300" cy="185.91" r="37.5"/>
  <circle class="cls-1" cx="153.59" cy="332.32" r="49.99"/>
  <circle class="cls-1" cx="100" cy="532.32" r="37.5"/>
  <circle class="cls-1" cx="153.59" cy="732.32" r="49.99"/>
  <circle class="cls-1" cx="846.41" cy="732.32" r="49.99"/>
  <circle class="cls-1" cx="900" cy="532.32" r="37.5"/>
  <circle class="cls-1" cx="846.41" cy="332.32" r="49.99"/>
  <circle class="cls-1" cx="700" cy="185.91" r="37.5"/>
  <g>
    <path class="cls-1" d="m500,832.32c-80.13,0-155.47-31.21-212.13-87.87-56.66-56.66-87.87-132-87.87-212.13s31.21-155.47,87.87-212.13c56.66-56.66,132-87.87,212.13-87.87s155.47,31.21,212.13,87.87c56.66,56.66,87.87,132,87.87,212.13s-31.21,155.47-87.87,212.13c-56.66,56.66-132,87.87-212.13,87.87Zm0-550c-66.78,0-129.56,26-176.78,73.22s-73.22,110-73.22,176.78,26,129.56,73.22,176.78,110,73.22,176.78,73.22,129.56-26,176.78-73.22,73.22-110,73.22-176.78-26-129.56-73.22-176.78-110-73.22-176.78-73.22Z"/>
    <circle class="cls-1" cx="500" cy="344.81" r="37.5"/>
  </g>
</svg>