<?xml version="1.0" encoding="UTF-8"?>
<svg id="_레이어_1" data-name="레이어 1" xmlns="http://www.w3.org/2000/svg" viewBox="0 0 1000 1000">
  <defs>
    <style>
      .cls-1 {
        fill: #231815;
      }
    </style>
  </defs>
  <circle class="cls-1" cx="500" cy="132.32" r="50"/>
  <circle class="cls-1" cx="300" cy="185.91" r="37.5"/>
  <circle class="cls-1" cx="153.59" cy="332.32" r="49.99"/>
  <circle class="cls-1" cx="100" cy="532.32" r="37.5"/>
  <circle class="cls-1" cx="153.59" cy="732.32" r="49.99"/>
  <circle class="cls-1" cx="846.41" cy="732.32" r="49.99"/>
  <circle class="cls-1" cx="900" cy="532.32" r="37.5"/>
  <circle class="cls-1" cx="846.41" cy="332.32" r="49.99"/>
  <circle class="cls-1" cx="700" cy="185.91" r="37.5"/>
  <path class="cls-1" d="m500,257.32c-151.88,0-275,123.12-275,275s123.12,275,275,275,275-123.12,275-275-123.12-275-275-275Zm18.75,119.96c-17.94,10.35-40.87,4.21-51.22-13.73-10.36-17.94-4.21-40.87,13.73-51.22,17.94-10.35,40.87-4.21,51.22,13.73,10.36,17.94,4.21,40.87-13.73,51.22Z"/>
</svg>