<?xml version="1.0" encoding="UTF-8"?>
<svg id="_레이어_1" data-name="레이어 1" xmlns="http://www.w3.org/2000/svg" viewBox="0 0 1000 1000">
  <defs>
    <style>
      .cls-1 {
        fill: #231815;
      }
    </style>
  </defs>
  <rect class="cls-1" x="475" y="69.77" width="50" height="122.23"/>
  <rect class="cls-1" x="274.28" y="123.56" width="50" height="122.23" transform="translate(-52.24 174.38) rotate(-30)"/>
  <rect class="cls-1" x="127.35" y="270.49" width="50" height="122.23" transform="translate(-211.01 297.74) rotate(-60)"/>
  <rect class="cls-1" x="37.45" y="507.32" width="122.23" height="50"/>
  <rect class="cls-1" x="91.23" y="708.04" width="122.23" height="50" transform="translate(-346.11 174.38) rotate(-30)"/>
  <rect class="cls-1" x="822.65" y="671.93" width="50" height="122.23" transform="translate(-211.01 1100.6) rotate(-60)"/>
  <rect class="cls-1" x="840.32" y="507.32" width="122.23" height="50"/>
  <rect class="cls-1" x="786.54" y="306.61" width="122.23" height="50" transform="translate(-52.24 468.25) rotate(-30)"/>
  <rect class="cls-1" x="639.6" y="159.67" width="122.23" height="50" transform="translate(190.42 699.17) rotate(-60)"/>
  <path class="cls-1" d="m712.13,320.19c-56.66-56.66-132-87.87-212.13-87.87s-155.47,31.21-212.13,87.87c-56.66,56.66-87.87,132-87.87,212.13s31.21,155.47,87.87,212.13c56.66,56.66,132,87.87,212.13,87.87s155.47-31.21,212.13-87.87c56.66-56.66,87.87-132,87.87-212.13s-31.21-155.47-87.87-212.13Zm-35.36,388.91c-47.22,47.22-110,73.22-176.78,73.22s-129.56-26-176.78-73.22-73.22-110-73.22-176.78,26-129.56,73.22-176.78c41.28-41.28,94.44-66.34,151.78-71.99v216.45h50v-216.45c57.33,5.66,110.5,30.72,151.78,71.99,47.22,47.22,73.22,110,73.22,176.78s-26,129.56-73.22,176.78Z"/>
</svg>